{
	"asset":{
		"generator":"Khronos glTF Blender I/O v3.5.30",
		"version":"2.0"
	},
	"scene":0,
	"scenes":[
		{
			"name":"Scene",
			"nodes":[
				0,
				1
			]
		}
	],
	"nodes":[
		{
			"mesh":0,
			"name":"top",
			"rotation":[
				0,
				0.7071018815040588,
				0,
				0.707111656665802
			],
			"translation":[
				1.2000000476837158,
				3.5,
				0.508803129196167
			]
		},
		{
			"mesh":1,
			"name":"bot",
			"rotation":[
				0,
				-0.7071139812469482,
				0,
				0.7070996761322021
			],
			"translation":[
				-1,
				1.5,
				-0.4911969304084778
			]
		}
	],
	"materials":[
		{
			"doubleSided":true,
			"name":"top",
			"pbrMetallicRoughness":{
				"baseColorFactor":[
					0,
					0.01699046604335308,
					0.8000000715255737,
					1
				],
				"metallicFactor":0,
				"roughnessFactor":0.30000001192092896
			}
		},
		{
			"doubleSided":true,
			"name":"bot",
			"pbrMetallicRoughness":{
				"baseColorFactor":[
					0,
					0.5538305640220642,
					1,
					1
				],
				"metallicFactor":0,
				"roughnessFactor":0.30000001192092896
			}
		}
	],
	"meshes":[
		{
			"name":"Cube.001",
			"primitives":[
				{
					"attributes":{
						"POSITION":0,
						"TEXCOORD_0":1,
						"NORMAL":2
					},
					"indices":3,
					"material":0
				}
			]
		},
		{
			"name":"Cube.002",
			"primitives":[
				{
					"attributes":{
						"POSITION":4,
						"TEXCOORD_0":5,
						"NORMAL":6
					},
					"indices":3,
					"material":1
				}
			]
		}
	],
	"accessors":[
		{
			"bufferView":0,
			"componentType":5126,
			"count":2668,
			"max":[
				1,
				0.46402281522750854,
				0.5729113817214966
			],
			"min":[
				0.5751163959503174,
				-1.4961681365966797,
				-2.0112242698669434
			],
			"type":"VEC3"
		},
		{
			"bufferView":1,
			"componentType":5126,
			"count":2668,
			"type":"VEC2"
		},
		{
			"bufferView":2,
			"componentType":5126,
			"count":2668,
			"type":"VEC3"
		},
		{
			"bufferView":3,
			"componentType":5123,
			"count":4332,
			"type":"SCALAR"
		},
		{
			"bufferView":4,
			"componentType":5126,
			"count":2668,
			"max":[
				1,
				0.46402281522750854,
				0.5729113817214966
			],
			"min":[
				0.5751163959503174,
				-1.4961681365966797,
				-2.0112242698669434
			],
			"type":"VEC3"
		},
		{
			"bufferView":5,
			"componentType":5126,
			"count":2668,
			"type":"VEC2"
		},
		{
			"bufferView":6,
			"componentType":5126,
			"count":2668,
			"type":"VEC3"
		}
	],
	"bufferViews":[
		{
			"buffer":0,
			"byteLength":32016,
			"byteOffset":0,
			"target":34962
		},
		{
			"buffer":0,
			"byteLength":21344,
			"byteOffset":32016,
			"target":34962
		},
		{
			"buffer":0,
			"byteLength":32016,
			"byteOffset":53360,
			"target":34962
		},
		{
			"buffer":0,
			"byteLength":8664,
			"byteOffset":85376,
			"target":34963
		},
		{
			"buffer":0,
			"byteLength":32016,
			"byteOffset":94040,
			"target":34962
		},
		{
			"buffer":0,
			"byteLength":21344,
			"byteOffset":126056,
			"target":34962
		},
		{
			"buffer":0,
			"byteLength":32016,
			"byteOffset":147400,
			"target":34962
		}
	],
	"buffers":[
		{
			"byteLength":179416,
			"uri":"data:application/octet-stream;base64,"
		}
	]
}
